<svg width="300" height="80" viewBox="0 0 300 80" fill="none" xmlns="http://www.w3.org/2000/svg">
<rect width="80" height="80" rx="40" fill="#539E43"/>
<path d="M40 62.9268C39.2547 62.9268 38.559 62.7601 37.913 62.4684L31.3043 59.1759C30.3106 58.7174 30.8075 58.5507 31.1056 58.4673C32.4472 58.0922 32.6957 58.0089 34.087 57.342C34.236 57.2587 34.4348 57.3004 34.5839 57.3837L39.6522 59.926C39.8509 60.0094 40.0994 60.0094 40.2484 59.926L60.0745 50.2986C60.2733 50.2152 60.3727 50.0485 60.3727 49.8401V30.6268C60.3727 30.4185 60.2733 30.2517 60.0745 30.1684L40.2484 20.5826C40.0497 20.4992 39.8012 20.4992 39.6522 20.5826L19.8261 30.1684C19.6273 30.2517 19.528 30.4601 19.528 30.6268V49.8401C19.528 50.0068 19.6273 50.2152 19.8261 50.2986L25.2422 52.9242C28.1739 54.1746 30.0124 52.7159 30.0124 51.2571V32.2939C30.0124 32.0439 30.2609 31.7938 30.6087 31.7938H33.1429C33.441 31.7938 33.7391 32.0022 33.7391 32.2939V51.2571C33.7391 54.5497 31.6025 56.4668 27.8758 56.4668C26.7329 56.4668 25.8385 56.4668 23.3043 55.4249L18.087 52.9242C16.795 52.2991 16 51.1321 16 49.8818V30.6685C16 29.4182 16.795 28.2512 18.087 27.6261L37.913 17.9986C39.1553 17.4151 40.8447 17.4151 42.087 17.9986L61.913 27.6261C63.205 28.2512 64 29.4182 64 30.6685V49.8818C64 51.1321 63.205 52.2991 61.913 52.9242L42.087 62.5517C41.441 62.8018 40.6957 62.9268 40 62.9268ZM46.1118 49.7151C37.4161 49.7151 35.6273 46.3809 35.6273 43.5468C35.6273 43.2968 35.8758 43.0467 36.2236 43.0467H38.8075C39.1056 43.0467 39.354 43.2134 39.354 43.4635C39.7516 45.6724 40.8944 46.756 46.1615 46.756C50.3354 46.756 52.1242 45.9641 52.1242 44.0886C52.1242 43.005 51.6273 42.2132 45.118 41.6713C39.7019 41.2129 36.323 40.2126 36.323 36.5867C36.323 33.2108 39.7019 31.2103 45.3665 31.2103C51.7267 31.2103 54.8571 33.0441 55.2547 37.0452C55.2547 37.1702 55.205 37.2952 55.1056 37.4203C55.0062 37.5036 54.8571 37.587 54.7081 37.587H52.1242C51.8758 37.587 51.6273 37.4203 51.5776 37.2119C50.9814 34.9196 49.441 34.1694 45.3665 34.1694C40.795 34.1694 40.2484 35.5031 40.2484 36.5034C40.2484 37.712 40.8944 38.0871 47.0559 38.7539C53.1677 39.4208 56.0497 40.3793 56.0497 43.9636C56 47.6312 52.4224 49.7151 46.1118 49.7151Z" fill="white"/>
<rect x="110" width="80" height="80" rx="40" fill="#2C396B"/>
<path d="M165.466 32.2649C164.968 32.0828 164.452 31.9106 163.92 31.7477C164.008 31.3691 164.088 30.9954 164.159 30.6281C165.329 24.5969 164.564 19.738 161.953 18.1383C159.449 16.6044 155.353 18.2037 151.217 22.0273C150.82 22.3949 150.421 22.7842 150.022 23.1922C149.757 22.9222 149.491 22.6614 149.227 22.4119C144.892 18.3235 140.548 16.6006 137.939 18.205C135.437 19.7434 134.696 24.3111 135.749 30.027C135.851 30.5791 135.969 31.1429 136.104 31.7162C135.489 31.9016 134.895 32.0993 134.327 32.3095C129.245 34.1916 126 37.1413 126 40.2009C126 43.3609 129.484 46.5305 134.777 48.4523C135.195 48.604 135.628 48.7474 136.075 48.8835C135.93 49.5035 135.804 50.111 135.698 50.7036C134.694 56.3203 135.478 60.7801 137.973 62.3088C140.55 63.8875 144.875 62.2648 149.087 58.3541C149.42 58.045 149.754 57.7172 150.089 57.3735C150.522 57.8173 150.955 58.2372 151.386 58.6311C155.466 62.3602 159.495 63.866 161.987 62.333C164.562 60.7498 165.399 55.9589 164.312 50.1299C164.229 49.6847 164.133 49.2299 164.024 48.7671C164.328 48.6717 164.626 48.5732 164.917 48.4708C170.42 46.5341 174 43.4031 174 40.2009C174 37.1303 170.65 34.1607 165.466 32.2649ZM164.272 46.4032C164.01 46.4955 163.74 46.5847 163.466 46.6712C162.858 44.6283 162.039 42.456 161.035 40.2116C161.993 38.0206 162.781 35.8761 163.371 33.8464C163.862 33.9973 164.339 34.1565 164.798 34.3245C169.24 35.9488 171.949 38.3504 171.949 40.2009C171.949 42.1721 169.023 44.7309 164.272 46.4032ZM162.301 50.5529C162.781 53.1304 162.85 55.4608 162.531 57.2825C162.246 58.9195 161.671 60.0108 160.96 60.448C159.447 61.3781 156.212 60.169 152.723 56.9799C152.324 56.6143 151.921 56.224 151.517 55.8108C152.869 54.2395 154.221 52.4128 155.54 50.384C157.861 50.1653 160.053 49.8077 162.041 49.3195C162.139 49.7391 162.226 50.1506 162.301 50.5529ZM142.364 60.2872C140.886 60.8417 139.709 60.8576 138.998 60.4217C137.484 59.4941 136.854 55.9132 137.713 51.1098C137.811 50.5597 137.928 49.9947 138.063 49.4171C140.029 49.879 142.206 50.2113 144.532 50.4116C145.86 52.3968 147.251 54.2215 148.652 55.8193C148.346 56.1333 148.041 56.4323 147.738 56.714C145.875 58.4432 144.009 59.6701 142.364 60.2872ZM135.44 46.3911C133.1 45.5414 131.167 44.4369 129.842 43.2317C128.652 42.1487 128.05 41.0734 128.05 40.2009C128.05 38.3443 130.656 35.9761 135.002 34.3664C135.53 34.1711 136.082 33.9871 136.655 33.8142C137.255 35.8897 138.043 38.0596 138.994 40.2539C138.031 42.4808 137.232 44.6854 136.625 46.7852C136.217 46.6605 135.821 46.5293 135.44 46.3911ZM137.761 29.6087C136.859 24.7115 137.458 21.0172 138.966 20.0902C140.572 19.1026 144.123 20.5107 147.865 24.0408C148.105 24.2664 148.345 24.5026 148.586 24.7469C147.191 26.3376 145.813 28.1487 144.497 30.1221C142.239 30.3444 140.078 30.7015 138.091 31.1796C137.966 30.6458 137.856 30.1214 137.761 29.6087ZM158.466 35.0397C157.991 34.1682 157.504 33.3173 157.007 32.4897C158.538 32.6954 160.006 32.9684 161.384 33.3025C160.97 34.7109 160.454 36.1835 159.847 37.6931C159.412 36.815 158.951 35.9296 158.466 35.0397ZM150.023 26.3036C150.969 27.3921 151.916 28.6074 152.848 29.9259C151.909 29.8788 150.958 29.8543 150 29.8543C149.051 29.8543 148.107 29.8783 147.174 29.9246C148.107 28.6182 149.062 27.4046 150.023 26.3036ZM141.525 35.0548C141.051 35.9287 140.599 36.8092 140.17 37.6914C139.573 36.1871 139.062 34.7078 138.645 33.2794C140.015 32.9539 141.475 32.6877 142.997 32.4859C142.493 33.3212 142.001 34.1783 141.525 35.0546V35.0548ZM143.041 48.0714C141.468 47.885 139.986 47.6326 138.617 47.316C139.041 45.8621 139.563 44.3512 140.173 42.8145C140.602 43.696 141.056 44.5769 141.533 45.4528H141.534C142.02 46.345 142.524 47.219 143.041 48.0714ZM150.08 54.2519C149.108 53.138 148.138 51.9058 147.192 50.5804C148.111 50.6187 149.048 50.6383 150 50.6383C150.978 50.6383 151.946 50.6149 152.898 50.5699C151.963 51.9191 151.019 53.1532 150.08 54.2519ZM159.867 42.7361C160.508 44.2895 161.049 45.7925 161.479 47.2216C160.087 47.5589 158.584 47.8305 157.001 48.0323C157.499 47.1935 157.991 46.3281 158.475 45.4378C158.964 44.5371 159.428 43.635 159.867 42.7361ZM156.698 44.3496C155.948 45.7316 155.178 47.0509 154.396 48.2962C152.971 48.4044 151.5 48.4601 150 48.4601C148.506 48.4601 147.053 48.4108 145.654 48.3143C144.841 47.0527 144.054 45.7295 143.308 44.3615H143.308C142.565 42.9972 141.88 41.6213 141.26 40.2532C141.88 38.8819 142.563 37.5046 143.302 36.1427L143.302 36.143C144.043 34.7775 144.823 33.4607 145.629 32.207C147.057 32.0924 148.521 32.0325 150 32.0325H150C151.486 32.0325 152.952 32.0928 154.379 32.2084C155.173 33.453 155.947 34.7655 156.692 36.1312C157.444 37.5122 158.136 38.8804 158.761 40.2223C158.138 41.5872 157.448 42.9692 156.698 44.3496ZM160.928 20.0254C162.536 21.01 163.161 24.9811 162.151 30.1885C162.087 30.5208 162.014 30.8592 161.935 31.2022C159.944 30.7141 157.781 30.3509 155.517 30.1252C154.198 28.1301 152.832 26.3162 151.46 24.7459C151.828 24.369 152.197 24.0095 152.564 23.6704C156.107 20.3944 159.419 19.101 160.928 20.0254ZM150 35.6478C152.367 35.6478 154.286 37.6863 154.286 40.2009C154.286 42.7155 152.367 44.7541 150 44.7541C147.633 44.7541 145.714 42.7155 145.714 40.2009C145.714 37.6863 147.633 35.6478 150 35.6478Z" fill="#00D8FF"/>
<rect x="220" width="80" height="80" rx="40" fill="#1F1F1F"/>
<path d="M260 17.561C246.747 17.561 236 27.9733 236 40.8182C236 51.0938 242.877 59.8116 252.413 62.8868C253.612 63.1021 254.053 62.3823 254.053 61.768C254.053 61.2135 254.03 59.3814 254.02 57.438C247.343 58.8449 245.934 54.694 245.934 54.694C244.842 52.0058 243.269 51.291 243.269 51.291C241.092 49.8475 243.434 49.8772 243.434 49.8772C245.844 50.0412 247.113 52.2738 247.113 52.2738C249.253 55.8294 252.727 54.8014 254.097 54.2072C254.312 52.704 254.934 51.678 255.62 51.0973C250.29 50.5092 244.686 48.515 244.686 39.6035C244.686 37.0643 245.623 34.9896 247.159 33.3609C246.91 32.7751 246.088 30.4097 247.391 27.2062C247.391 27.2062 249.407 26.5811 253.993 29.5901C255.907 29.0748 257.961 28.8164 260 28.8075C262.04 28.8164 264.095 29.0748 266.013 29.5901C270.593 26.5811 272.606 27.2062 272.606 27.2062C273.912 30.4097 273.09 32.7751 272.841 33.3609C274.38 34.9896 275.311 37.0643 275.311 39.6035C275.311 48.5362 269.697 50.503 264.352 51.0788C265.213 51.8005 265.98 53.2159 265.98 55.3857C265.98 58.4975 265.953 61.002 265.953 61.768C265.953 62.3869 266.385 63.1121 267.601 62.8838C277.132 59.805 284 51.0903 284 40.8182C284 27.9733 273.255 17.561 260 17.561ZM244.989 50.6913C244.936 50.8069 244.748 50.8415 244.578 50.7622C244.403 50.6863 244.306 50.5288 244.362 50.4129C244.414 50.2939 244.602 50.2608 244.775 50.3405C244.95 50.4163 245.049 50.5754 244.989 50.6913ZM246.169 51.7121C246.055 51.8149 245.831 51.7672 245.679 51.6047C245.522 51.4425 245.493 51.2257 245.609 51.1213C245.727 51.0185 245.944 51.0666 246.101 51.2288C246.258 51.3928 246.289 51.6081 246.169 51.7121ZM246.979 53.0181C246.832 53.1171 246.592 53.0243 246.443 52.8175C246.296 52.6107 246.296 52.3627 246.446 52.2633C246.595 52.1639 246.832 52.2533 246.983 52.4586C247.13 52.6688 247.13 52.9169 246.979 53.0181ZM248.349 54.5307C248.217 54.6713 247.937 54.6336 247.732 54.4418C247.522 54.2542 247.464 53.9881 247.596 53.8475C247.729 53.7066 248.011 53.7462 248.217 53.9365C248.426 54.1236 248.489 54.3917 248.349 54.5307ZM250.119 55.0414C250.061 55.2235 249.791 55.3063 249.519 55.2289C249.248 55.1492 249.07 54.9358 249.125 54.7517C249.182 54.5684 249.453 54.4822 249.727 54.565C249.998 54.6443 250.176 54.8561 250.119 55.0414ZM252.134 55.258C252.141 55.4498 251.91 55.6088 251.625 55.6123C251.338 55.6184 251.106 55.4632 251.102 55.2745C251.102 55.0808 251.328 54.9233 251.615 54.9187C251.9 54.9133 252.134 55.0673 252.134 55.258ZM254.113 55.1844C254.147 55.3716 253.949 55.5638 253.665 55.615C253.387 55.6643 253.129 55.5488 253.093 55.3631C253.059 55.1713 253.261 54.9792 253.539 54.9295C253.823 54.8817 254.077 54.9942 254.113 55.1844Z" fill="white"/>
</svg>
