<svg width="190" height="80" viewBox="0 0 190 80" fill="none" xmlns="http://www.w3.org/2000/svg">
<rect width="80" height="80" rx="40" fill="#E44D26"/>
<path d="M61.9239 38.5056L41.9345 20.1891C40.7842 19.134 38.917 19.134 37.7652 20.1891L33.6144 23.9928L38.8798 28.818C40.1035 28.4391 41.5065 28.6932 42.4821 29.5872C43.4621 30.4866 43.7374 31.7834 43.3139 32.9084L48.3885 37.5587C49.6162 37.1711 51.0328 37.4219 52.0133 38.3219C53.3837 39.5772 53.3837 41.6119 52.0133 42.8681C50.6425 44.1243 48.4222 44.1243 47.0508 42.8681C46.02 41.9226 45.7653 40.5351 46.2872 39.3714L41.5548 35.0347L41.5543 46.4471C41.8883 46.599 42.2038 46.8011 42.4821 47.0552C43.8524 48.3105 43.8524 50.3452 42.4821 51.6024C41.1112 52.8581 38.8899 52.8581 37.521 51.6024C36.1507 50.3452 36.1507 48.3105 37.521 47.0552C37.8596 46.7454 38.2514 46.5111 38.6694 46.3537V34.8349C38.2514 34.6784 37.8601 34.4455 37.521 34.1334C36.4827 33.1832 36.2331 31.7871 36.765 30.6188L31.5749 25.8617L17.8688 38.4209C16.7169 39.4768 16.7169 41.1879 17.8688 42.243L37.8581 60.5599C39.0089 61.6149 40.8756 61.6149 42.028 60.5599L61.9239 42.3281C63.0752 41.2726 63.0752 39.5606 61.9239 38.5056Z" fill="white"/>
<rect x="110" width="80" height="80" rx="40" fill="#2E2E2E"/>
<path d="M140.286 63.9024C145.648 63.9024 150 60.5151 150 56.3415V48.7805H140.286C134.924 48.7805 130.572 52.1678 130.572 56.3415C130.572 60.5151 134.924 63.9024 140.286 63.9024Z" fill="#0ACF83"/>
<path d="M130.572 41.2195C130.572 37.0459 134.924 33.6585 140.286 33.6585H150V48.7805H140.286C134.924 48.7805 130.572 45.3932 130.572 41.2195Z" fill="#A259FF"/>
<path d="M130.572 26.0976C130.572 21.9239 134.924 18.5366 140.286 18.5366H150V33.6585H140.286C134.924 33.6585 130.572 30.2712 130.572 26.0976Z" fill="#F24E1E"/>
<path d="M150 18.5366H159.714C165.077 18.5366 169.429 21.9239 169.429 26.0976C169.429 30.2712 165.077 33.6585 159.714 33.6585H150V18.5366Z" fill="#FF7262"/>
<path d="M169.429 41.2195C169.429 45.3932 165.077 48.7805 159.714 48.7805C154.352 48.7805 150 45.3932 150 41.2195C150 37.0459 154.352 33.6585 159.714 33.6585C165.077 33.6585 169.429 37.0459 169.429 41.2195Z" fill="#1ABCFE"/>
</svg>
