<svg width="300" height="80" viewBox="0 0 300 80" fill="none" xmlns="http://www.w3.org/2000/svg">
<rect width="80" height="80" rx="40" fill="#E44D26"/>
<path d="M62.7873 19.3978L58.6164 57.1515L39.8681 61.3512L21.1714 57.1574L17.0049 19.3978H62.7873Z" fill="#E44D26"/>
<path d="M39.896 58.1411L55.0456 54.7474L58.6099 22.4852H39.896V58.1411Z" fill="#F16529"/>
<path d="M31.788 31.7474H39.896V27.1163H25.5242L25.6614 28.3588L27.0701 41.1207H39.896V36.4897H32.3118L31.788 31.7474Z" fill="#EBEBEB"/>
<path d="M33.0797 43.4363H27.3262L28.1292 50.7077L39.8697 53.3412L39.896 53.3353V48.517L39.8709 48.5224L33.4877 47.1298L33.0797 43.4363Z" fill="#EBEBEB"/>
<path d="M39.8762 41.1207H46.9339L46.2686 47.1268L39.8762 48.5209V53.339L51.6261 50.7077L51.7123 49.9253L53.0591 37.7333L53.199 36.4897H39.8762V41.1207Z" fill="white"/>
<path d="M39.8762 31.7361V31.7474H53.7205L53.8355 30.7065L54.0966 28.3588L54.2337 27.1163H39.8762V31.7361Z" fill="white"/>
<rect x="110" width="80" height="80" rx="40" fill="#1C3AAF"/>
<path d="M150.306 61.103L131.61 56.9092L127.443 19.1496H173.226L169.055 56.9032L150.306 61.103Z" fill="#264DE4"/>
<path d="M165.484 54.4992L169.048 22.237H150.334V57.8929L165.484 54.4992Z" fill="#2965F1"/>
<path d="M136.995 36.2415L137.508 40.8725H150.334V36.2415H136.995Z" fill="#EBEBEB"/>
<path d="M135.962 26.8681L136.483 31.4992H150.334V26.8681H135.962Z" fill="#EBEBEB"/>
<path d="M150.334 48.2688L150.309 48.2742L143.926 46.8816L143.518 43.1881H137.764L138.567 50.4595L150.308 53.093L150.334 53.0871V48.2688Z" fill="#EBEBEB"/>
<path d="M163.637 36.2415L164.672 26.8681H150.314V31.4992H158.391L157.869 36.2415H150.314V40.8725H157.372L156.707 46.8786L150.314 48.2727V53.0907L162.064 50.4595L162.151 49.6771L163.497 37.485L163.637 36.2415Z" fill="white"/>
<rect x="220" width="80" height="80" rx="40" fill="#F7DF1E"/>
<path d="M233 9H276V52H233V9Z" fill="#F7DF1E"/>
<path d="M244.306 44.934L247.597 42.9425C248.232 44.0681 248.809 45.0204 250.194 45.0204C251.522 45.0204 252.359 44.501 252.359 42.4807V28.7412H256.4V42.5378C256.4 46.7232 253.947 48.6282 250.368 48.6282C247.135 48.6282 245.259 46.954 244.306 44.9336" fill="black"/>
<path d="M258.595 44.5009L261.886 42.5959C262.752 44.0104 263.878 45.0494 265.869 45.0494C267.543 45.0494 268.611 44.2123 268.611 43.0577C268.611 41.6722 267.514 41.1815 265.667 40.3736L264.657 39.9403C261.742 38.6994 259.808 37.1407 259.808 33.8501C259.808 30.8194 262.117 28.5101 265.725 28.5101C268.294 28.5101 270.141 29.405 271.469 31.743L268.322 33.7634C267.63 32.5224 266.879 32.0318 265.725 32.0318C264.541 32.0318 263.791 32.7822 263.791 33.7634C263.791 34.9758 264.541 35.4666 266.273 36.2171L267.283 36.65C270.718 38.1222 272.652 39.623 272.652 43C272.652 46.6371 269.795 48.6285 265.956 48.6285C262.203 48.6285 259.779 46.839 258.596 44.5009" fill="black"/>
</svg>
